<svg xmlns="http://www.w3.org/2000/svg" xmlns:xlink="http://www.w3.org/1999/xlink" width="1920" zoomAndPan="magnify" viewBox="0 0 1440 809.999993" height="1080" preserveAspectRatio="xMidYMid meet" version="1.2"><g id="b5e367d7b0"><path style=" stroke:none;fill-rule:nonzero;fill:#022d5e;fill-opacity:1;" d="M 840.433594 439.503906 C 840.433594 445.46875 835.601562 450.304688 829.636719 450.304688 C 823.671875 450.304688 813.894531 443.5625 813.894531 437.597656 C 813.894531 431.632812 823.671875 428.707031 829.636719 428.707031 C 835.601562 428.707031 840.433594 433.539062 840.433594 439.503906 Z M 873.734375 349.796875 C 862 356.570312 842.539062 361.625 838.996094 355.488281 C 835.453125 349.355469 849.175781 334.351562 860.910156 327.578125 C 872.640625 320.800781 885.027344 320.285156 888.570312 326.417969 C 892.109375 332.554688 885.46875 343.019531 873.734375 349.796875 Z M 637.210938 218.261719 C 640.433594 227.027344 641.582031 240.84375 636.996094 242.53125 C 632.414062 244.214844 623.835938 233.132812 620.609375 224.367188 C 617.386719 215.597656 618.488281 207.125 623.074219 205.441406 C 627.65625 203.753906 633.988281 209.496094 637.210938 218.261719 Z M 794.167969 415.824219 C 826.132812 444.421875 786.230469 437.546875 787.753906 448.5625 C 799.210938 531.410156 925.34375 537.101562 895.242188 570.925781 C 865.140625 604.746094 832.460938 489.417969 744.328125 493.324219 C 656.773438 493.925781 686.835938 596.792969 639.40625 578.128906 C 601.101562 557.0625 674.496094 520.125 631.792969 461.824219 C 592.710938 409.027344 516.644531 467.144531 515.367188 424.171875 C 514.089844 381.203125 604.910156 450.550781 640.964844 359.222656 C 675.164062 308.992188 630.066406 280.6875 651.871094 275.078125 C 673.671875 269.472656 659.835938 320.847656 712.5625 331.71875 C 732.273438 335.78125 746.183594 291.273438 764.769531 303.609375 C 783.355469 315.949219 761.386719 338.667969 770.265625 356.355469 C 781.433594 378.597656 813.613281 346.308594 821.898438 365.96875 C 830.183594 385.628906 784.527344 399.433594 794.167969 415.824219 C 804.144531 415.824219 834.691406 415.824219 794.167969 415.824219 Z M 794.167969 415.824219 "/></g></svg>